<svg xmlns="http://www.w3.org/2000/svg" width="140" height="32" viewBox="0 0 240 56">
  <g transform="translate(0, -18) scale(0.75)">
    <path fill="#ffffff" d="M 2.71 21.8 C 3.98 20.53 6.05 20.53 7.32 21.8 L 33.88 48.37 C 35.15 49.64 35.15 51.7 33.88 52.97 C 32.61 54.24 30.55 54.24 29.28 52.97 L 2.71 26.41 C 1.44 25.14 1.44 23.07 2.71 21.8Z"/>
    <path fill="#ffffff" d="M 2.71 34.3 C 3.98 33.03 6.04 33.03 7.32 34.3 L 21.38 48.37 C 22.65 49.64 22.65 51.7 21.38 52.97 C 20.11 54.24 18.05 54.24 16.77 52.97 L 2.71 38.91 C 1.44 37.64 1.44 35.57 2.71 34.3Z"/>
    <path fill="#ffffff" d="M 2.32 46.71 C 3.6 45.44 5.66 45.44 6.93 46.71 L 9.15 48.93 C 10.42 50.2 10.42 52.26 9.15 53.53 C 7.88 54.8 5.81 54.8 4.54 53.53 L 2.32 51.31 C 1.05 50.04 1.05 47.98 2.32 46.71Z"/>
    <path fill="#ffffff" d="M 22.04 28.66 C 23.26 27.43 25.25 27.43 26.48 28.66 L 33.59 35.76 C 34.81 36.99 34.81 38.98 33.59 40.21 C 32.36 41.43 30.37 41.43 29.14 40.21 L 22.04 33.1 C 20.81 31.87 20.81 29.88 22.04 28.66Z"/>
    <path fill="#ffffff" d="M 22.14 33.03 C 20.89 31.82 20.85 29.84 22.05 28.59 L 29.02 21.34 C 30.22 20.09 32.21 20.05 33.46 21.25 C 34.71 22.46 34.75 24.45 33.55 25.7 L 26.59 32.94 C 25.38 34.19 23.39 34.23 22.14 33.03Z"/>
  </g>
  <text x="36" y="38" font-family="Inter, sans-serif" font-weight="600" font-size="26" fill="#ffffff" letter-spacing="-0.5">wandaplay</text>
</svg>
